<mxfile host="Electron" modified="2023-11-17T16:13:33.442Z" agent="Mozilla/5.0 (Windows NT 10.0; Win64; x64) AppleWebKit/537.36 (KHTML, like Gecko) draw.io/22.0.3 Chrome/114.0.5735.289 Electron/25.8.4 Safari/537.36" version="22.0.3" etag="5XCn9QqOJwq7t2tkPTAW" type="device">
  <diagram id="xKtf-KXVpvjl7zktOwsD" name="第 1 页">
    <mxGraphModel dx="882" dy="717" grid="1" gridSize="10" guides="1" tooltips="1" connect="1" arrows="1" fold="1" page="1" pageScale="1" pageWidth="1169" pageHeight="827" math="0" shadow="0">
      <root>
        <mxCell id="0" />
        <mxCell id="1" parent="0" />
        <mxCell id="_3Cnu32-ga2hcWZuqatN-3" value="" style="edgeStyle=orthogonalEdgeStyle;rounded=0;orthogonalLoop=1;jettySize=auto;html=1;" edge="1" parent="1" source="_3Cnu32-ga2hcWZuqatN-1" target="_3Cnu32-ga2hcWZuqatN-2">
          <mxGeometry relative="1" as="geometry" />
        </mxCell>
        <mxCell id="_3Cnu32-ga2hcWZuqatN-1" value="观测数据、星历数据、近似坐标输入" style="rounded=1;whiteSpace=wrap;html=1;" vertex="1" parent="1">
          <mxGeometry x="40" y="340" width="120" height="60" as="geometry" />
        </mxCell>
        <mxCell id="_3Cnu32-ga2hcWZuqatN-5" value="" style="edgeStyle=orthogonalEdgeStyle;rounded=0;orthogonalLoop=1;jettySize=auto;html=1;" edge="1" parent="1" source="_3Cnu32-ga2hcWZuqatN-2" target="_3Cnu32-ga2hcWZuqatN-4">
          <mxGeometry relative="1" as="geometry" />
        </mxCell>
        <mxCell id="_3Cnu32-ga2hcWZuqatN-2" value="搭建位置解算构造矩阵、残差矩阵、权阵" style="whiteSpace=wrap;html=1;rounded=1;" vertex="1" parent="1">
          <mxGeometry x="200" y="340" width="120" height="60" as="geometry" />
        </mxCell>
        <mxCell id="_3Cnu32-ga2hcWZuqatN-6" style="edgeStyle=orthogonalEdgeStyle;rounded=0;orthogonalLoop=1;jettySize=auto;html=1;entryX=0.5;entryY=0;entryDx=0;entryDy=0;exitX=0.5;exitY=0;exitDx=0;exitDy=0;" edge="1" parent="1" source="_3Cnu32-ga2hcWZuqatN-9" target="_3Cnu32-ga2hcWZuqatN-2">
          <mxGeometry relative="1" as="geometry">
            <mxPoint x="460" y="240" as="targetPoint" />
          </mxGeometry>
        </mxCell>
        <mxCell id="_3Cnu32-ga2hcWZuqatN-19" value="精度不满足要求" style="edgeLabel;html=1;align=center;verticalAlign=middle;resizable=0;points=[];" vertex="1" connectable="0" parent="_3Cnu32-ga2hcWZuqatN-6">
          <mxGeometry x="-0.5586" y="-8" relative="1" as="geometry">
            <mxPoint y="-3" as="offset" />
          </mxGeometry>
        </mxCell>
        <mxCell id="_3Cnu32-ga2hcWZuqatN-10" value="" style="edgeStyle=orthogonalEdgeStyle;rounded=0;orthogonalLoop=1;jettySize=auto;html=1;" edge="1" parent="1" source="_3Cnu32-ga2hcWZuqatN-4" target="_3Cnu32-ga2hcWZuqatN-9">
          <mxGeometry relative="1" as="geometry" />
        </mxCell>
        <mxCell id="_3Cnu32-ga2hcWZuqatN-4" value="最小二乘解算，并进行精度评定" style="whiteSpace=wrap;html=1;rounded=1;" vertex="1" parent="1">
          <mxGeometry x="360" y="340" width="120" height="60" as="geometry" />
        </mxCell>
        <mxCell id="_3Cnu32-ga2hcWZuqatN-11" style="edgeStyle=orthogonalEdgeStyle;rounded=0;orthogonalLoop=1;jettySize=auto;html=1;exitX=0.5;exitY=1;exitDx=0;exitDy=0;" edge="1" parent="1" source="_3Cnu32-ga2hcWZuqatN-9">
          <mxGeometry relative="1" as="geometry">
            <mxPoint x="573" y="470" as="targetPoint" />
            <Array as="points">
              <mxPoint x="573" y="470" />
            </Array>
          </mxGeometry>
        </mxCell>
        <mxCell id="_3Cnu32-ga2hcWZuqatN-14" value="" style="edgeStyle=orthogonalEdgeStyle;rounded=0;orthogonalLoop=1;jettySize=auto;html=1;" edge="1" parent="1" source="_3Cnu32-ga2hcWZuqatN-9" target="_3Cnu32-ga2hcWZuqatN-13">
          <mxGeometry relative="1" as="geometry" />
        </mxCell>
        <mxCell id="_3Cnu32-ga2hcWZuqatN-9" value="判断精度&lt;br&gt;和迭代次数" style="rhombus;whiteSpace=wrap;html=1;rounded=1;arcSize=0;" vertex="1" parent="1">
          <mxGeometry x="510" y="330" width="125" height="80" as="geometry" />
        </mxCell>
        <mxCell id="_3Cnu32-ga2hcWZuqatN-17" value="" style="edgeStyle=orthogonalEdgeStyle;rounded=0;orthogonalLoop=1;jettySize=auto;html=1;" edge="1" parent="1" source="_3Cnu32-ga2hcWZuqatN-13" target="_3Cnu32-ga2hcWZuqatN-16">
          <mxGeometry relative="1" as="geometry" />
        </mxCell>
        <mxCell id="_3Cnu32-ga2hcWZuqatN-13" value="搭建速度解算构造矩阵、残差矩阵、权阵" style="whiteSpace=wrap;html=1;rounded=1;arcSize=18;" vertex="1" parent="1">
          <mxGeometry x="730" y="340" width="120" height="60" as="geometry" />
        </mxCell>
        <mxCell id="_3Cnu32-ga2hcWZuqatN-18" style="edgeStyle=orthogonalEdgeStyle;rounded=0;orthogonalLoop=1;jettySize=auto;html=1;exitX=1;exitY=0.5;exitDx=0;exitDy=0;" edge="1" parent="1" source="_3Cnu32-ga2hcWZuqatN-16">
          <mxGeometry relative="1" as="geometry">
            <mxPoint x="1020" y="370" as="targetPoint" />
          </mxGeometry>
        </mxCell>
        <mxCell id="_3Cnu32-ga2hcWZuqatN-16" value="最小二乘解算、精度评定" style="whiteSpace=wrap;html=1;rounded=1;arcSize=18;" vertex="1" parent="1">
          <mxGeometry x="880" y="340" width="90" height="60" as="geometry" />
        </mxCell>
        <mxCell id="_3Cnu32-ga2hcWZuqatN-20" value="超过最大迭代次数" style="text;html=1;align=center;verticalAlign=middle;resizable=0;points=[];autosize=1;strokeColor=none;fillColor=none;" vertex="1" parent="1">
          <mxGeometry x="570" y="430" width="120" height="30" as="geometry" />
        </mxCell>
        <mxCell id="_3Cnu32-ga2hcWZuqatN-21" value="精度符合要求" style="text;html=1;align=center;verticalAlign=middle;resizable=0;points=[];autosize=1;strokeColor=none;fillColor=none;" vertex="1" parent="1">
          <mxGeometry x="630" y="340" width="100" height="30" as="geometry" />
        </mxCell>
      </root>
    </mxGraphModel>
  </diagram>
</mxfile>
